<?xml version="1.0" standalone="no"?><!DOCTYPE svg PUBLIC "-//W3C//DTD SVG 1.1//EN" "http://www.w3.org/Graphics/SVG/1.1/DTD/svg11.dtd"><svg t="1619258831434" class="icon" viewBox="0 0 1806 1024" version="1.1" xmlns="http://www.w3.org/2000/svg" p-id="2268" xmlns:xlink="http://www.w3.org/1999/xlink" width="352.734375" height="200"><defs><style type="text/css"></style></defs><path d="M1409.189225 188.774536l-124.401061-32.594165 106.745889-93.436604-45.360213-51.607427-175.73687 156.180371a13.580902 13.580902 0 0 0 5.432361 23.087533l217.29443 59.212732zM409.634848 188.774536l124.401061-32.594165-106.47427-93.436604L472.921851 11.13634l175.73687 156.180371a13.580902 13.580902 0 0 1-5.432361 23.087533l-217.294429 59.212732zM232.811506 1024A903.944828 903.944828 0 0 1 102.706466 0l48.348011 25.260477a849.077984 849.077984 0 0 0 121.956499 961.527852zM1572.703283 1024l-40.199469-36.668435A849.892838 849.892838 0 0 0 1655.275167 25.260477L1703.351559 0a904.488064 904.488064 0 0 1-130.648276 1024z" fill="#d4237a" p-id="2269"></path><path d="M400.399835 270.803183m-53.237135 0a53.237135 53.237135 0 1 0 106.47427 0 53.237135 53.237135 0 1 0-106.47427 0Z" fill="#d4237a" p-id="2270"></path><path d="M331.408854 407.970292m-61.928913 0a61.928912 61.928912 0 1 0 123.857825 0 61.928912 61.928912 0 1 0-123.857825 0Z" fill="#d4237a" p-id="2271"></path><path d="M285.505405 579.904509m-81.485411 0a81.485411 81.485411 0 1 0 162.970823 0 81.485411 81.485411 0 1 0-162.970823 0Z" fill="#d4237a" p-id="2272"></path><path d="M1415.708058 270.803183m-53.237135 0a53.237135 53.237135 0 1 0 106.47427 0 53.237135 53.237135 0 1 0-106.47427 0Z" fill="#d4237a" p-id="2273"></path><path d="M1484.699039 407.970292m-61.928912 0a61.928912 61.928912 0 1 0 123.857825 0 61.928912 61.928912 0 1 0-123.857825 0Z" fill="#d4237a" p-id="2274"></path><path d="M1530.602488 579.904509m-81.485411 0a81.485411 81.485411 0 1 0 162.970822 0 81.485411 81.485411 0 1 0-162.970822 0Z" fill="#d4237a" p-id="2275"></path><path d="M715.748376 842.830769c0-135.809019 83.929973-246.35756 187.416446-246.357559 103.214854 0 187.144828 110.548541 187.144827 246.357559z" fill="#d4237a" p-id="2276"></path></svg>